<svg xmlns="http://www.w3.org/2000/svg" viewBox="0 0 500 500">
    <defs>
        <symbol id="toothIcon" viewBox="0 0 100 100">
            <path
                d="m78.785 46.289c0.41016-0.69531 0.80078-1.3477 1.2656-1.957 3.6055-4.7539 5.2891-10.184 5.1484-16.602-0.085938-3.9219-0.92188-7.0156-2.6289-9.7383-3.332-5.3086-10.281-8.4062-17.305-7.7109-2.918 0.28906-5.582 0.96484-8.1445 2.0703-4.5977 1.9805-8.9648 2.0156-13.344 0.10547-4.9883-2.1719-9.9336-2.7891-14.703-1.8281-7.2773 1.4609-12.328 6.207-13.512 12.695-1.4102 7.7461 0.10156 14.758 4.4922 20.844 1.0547 1.4609 1.8242 3.1602 2.5664 4.8008l0.13281 0.29688c0.15234 0.33594 0.12891 0.87109 0.10938 1.3906l-0.015625 0.41016c-0.17969 8.3281 0.35156 15.121 1.6719 21.375 0.98047 4.6367 5.2148 14.852 9.4922 17.027 0.011719 0.007812 0.023437 0.003906 0.035156 0.011719 0.011719 0.007812 0.019531 0.015625 0.03125 0.023437 0.73047 0.30469 1.4492 0.45312 2.1445 0.45312 0.92188 0 1.8008-0.26562 2.6055-0.79297 6.3359-4.1523 6.8359-23.969 6.8711-26.23 0-2.3516 2.0039-4.418 4.293-4.418 2.4375 0 4.418 1.9805 4.418 4.4336 0 0.054687 0.097656 5.4844 0.94141 11.328 1.1641 8.0586 3.1602 13.066 5.9297 14.883 0.80469 0.52734 1.6875 0.79297 2.6055 0.79297 0.69531 0 1.4141-0.15234 2.1445-0.45312 0.042969-0.019531 0.085938-0.039062 0.12891-0.066406 3.4258-2.0469 5.2148-5.0273 6.3906-7.3945 1.8438-3.7188 3.0664-7.8906 3.7305-12.75 0.59766-4.3516 1.1523-16.594 1.0898-18.484-0.046875-1.3984 0.28906-2.6719 1.0273-3.8867zm-1.7188-1.0195-0.36719 0.61328c-0.9375 1.5391-1.3789 3.2227-1.3203 4.9961 0.058594 1.7188-0.49219 13.91-1.0703 18.145-0.63672 4.6406-1.793 8.6094-3.5391 12.133-1.0469 2.1094-2.6211 4.75-5.5625 6.5273-1.0703 0.42969-1.9688 0.36719-2.8203-0.19141-4.6172-3.0273-5.875-18.766-5.9688-24.555 0-3.5391-2.8789-6.418-6.418-6.418-3.4102 0-6.293 2.9375-6.293 6.3984-0.09375 5.8086-1.3477 21.543-5.9688 24.57-0.85938 0.5625-1.7656 0.61719-2.8477 0.17578-3.5078-1.8281-7.4883-11.281-8.4062-15.637-1.2852-6.1016-1.8047-12.746-1.6289-20.922l0.011719-0.375c0.027343-0.71875 0.0625-1.5312-0.28516-2.3008l-0.13281-0.29688c-0.78516-1.7305-1.5977-3.5234-2.7695-5.1445-4.1172-5.707-5.4766-12.023-4.1445-19.312 1.0312-5.6523 5.4922-9.8008 11.938-11.094 4.4219-0.88672 8.8398-0.33203 13.512 1.7031 4.9141 2.1406 9.8008 2.1055 14.934-0.10547 2.3711-1.0195 4.8438-1.6484 7.5508-1.918 6.2852-0.62109 12.477 2.1055 15.41 6.7852 1.5078 2.4023 2.2461 5.1719 2.3242 8.7188 0.12891 5.9492-1.4219 10.969-4.7422 15.352-0.53516 0.70312-0.97266 1.4414-1.3945 2.1523z"
                fill="#17a2b8"></path>
            <path
                d="m24.035 26.289c0.67969-3.7305 3.6367-6.4727 7.9102-7.332 0.54297-0.10938 0.89453-0.63672 0.78516-1.1758s-0.63672-0.89062-1.1758-0.78516c-5.1094 1.0273-8.6523 4.3672-9.4844 8.9336-0.98047 5.3828 0.070313 10.258 3.125 14.492 0.19531 0.26953 0.5 0.41406 0.8125 0.41406 0.20313 0 0.40625-0.0625 0.58594-0.1875 0.44922-0.32422 0.55078-0.94922 0.22656-1.3945-2.7656-3.8281-3.6758-8.0703-2.7852-12.965z"
                fill="#17a2b8"></path>
            <path
                d="m89.66 55.441-1.1562-0.63281c-0.98438-0.53906-1.7891-1.3438-2.3281-2.3281l-0.63281-1.1562c-0.35156-0.64062-1.4023-0.64062-1.7539 0l-0.63281 1.1562c-0.53906 0.98438-1.3438 1.7891-2.3281 2.3281l-1.1562 0.63281c-0.32031 0.17578-0.51953 0.51172-0.51953 0.87891 0 0.36328 0.19922 0.70313 0.51953 0.87891l1.1562 0.63281c0.98438 0.53906 1.7891 1.3438 2.3281 2.3281l0.63281 1.1562c0.17578 0.32031 0.51172 0.51953 0.87891 0.51953 0.36328 0 0.70312-0.19922 0.87891-0.51953l0.63281-1.1562c0.53906-0.98438 1.3438-1.7891 2.3281-2.3281l1.1562-0.63281c0.32031-0.17578 0.51953-0.51172 0.51953-0.87891-0.003906-0.36719-0.20312-0.70312-0.52344-0.87891zm-4.9922 3.3359c-0.625-0.99609-1.4648-1.832-2.4609-2.4609 0.99609-0.625 1.8359-1.4648 2.4609-2.4609 0.625 0.99609 1.4648 1.832 2.4609 2.4609-0.99609 0.62891-1.8359 1.4688-2.4609 2.4609z"
                fill="#17a2b8"></path>
            <path
                d="m45.656 37.426-1.3242-0.72656c-1.1523-0.63281-2.0977-1.5742-2.7305-2.7266l-0.72266-1.3242c-0.17578-0.32031-0.51172-0.51953-0.87891-0.51953-0.36328 0-0.70312 0.19922-0.87891 0.51953l-0.72656 1.3242c-0.63281 1.1523-1.5742 2.0977-2.7305 2.7305l-1.3242 0.72656c-0.32031 0.17578-0.51953 0.51172-0.51953 0.87891 0 0.36328 0.19922 0.70313 0.51953 0.87891l1.3242 0.72656c1.1523 0.63281 2.0977 1.5742 2.7305 2.7305l0.72656 1.3242c0.17578 0.32031 0.51172 0.51953 0.87891 0.51953s0.70312-0.19922 0.87891-0.51953l0.72266-1.3242c0.63281-1.1523 1.5742-2.0977 2.7305-2.7305l1.3242-0.72656c0.32031-0.17578 0.51953-0.51172 0.51953-0.87891 0-0.37109-0.19922-0.71094-0.51953-0.88281zm-5.6562 3.9766c-0.75781-1.2812-1.8242-2.3438-3.1016-3.1016 1.2812-0.75781 2.3438-1.8203 3.1016-3.1016 0.75781 1.2812 1.8242 2.3438 3.1016 3.1016-1.2773 0.75781-2.3398 1.8242-3.1016 3.1016z"
                fill="#17a2b8"></path>
            <path
                d="m82.355 67.961c-0.55078 0-1 0.44922-1 1v1.3125h-1.3125c-0.55078 0-1 0.44922-1 1 0 0.55078 0.44922 1 1 1h1.3125v1.3125c0 0.55078 0.44922 1 1 1s1-0.44922 1-1v-1.3125h1.3125c0.55078 0 1-0.44922 1-1 0-0.55078-0.44922-1-1-1h-1.3125v-1.3125c0-0.55469-0.44922-1-1-1z"
                fill="#17a2b8"></path>
            <path
                d="m13.734 63.145c0.55078 0 1-0.44922 1-1v-1.3125h1.3125c0.55078 0 1-0.44922 1-1s-0.44922-1-1-1h-1.3125v-1.3125c0-0.55078-0.44922-1-1-1s-1 0.44922-1 1v1.3125h-1.3125c-0.55078 0-1 0.44922-1 1s0.44922 1 1 1h1.3125v1.3125c0 0.55078 0.44922 1 1 1z"
                fill="#17a2b8"></path>
            <path
                d="m34.066 47.832h-1.3125v-1.3125c0-0.55078-0.44922-1-1-1-0.55078 0-1 0.44922-1 1v1.3125h-1.3125c-0.55078 0-1 0.44922-1 1s0.44922 1 1 1h1.3125v1.3125c0 0.55078 0.44922 1 1 1 0.55078 0 1-0.44922 1-1v-1.3125h1.3125c0.55078 0 1-0.44922 1-1-0.003906-0.55078-0.44922-1-1-1z"
                fill="#17a2b8"></path>
        </symbol>
    </defs>
    <rect width="300" height="300" rx="24" fill="#F8FAFC" x="100" y="100" style="stroke-width: 1;"></rect>
    <rect x="109.375" y="109.375" width="281.25" height="281.25" rx="18" fill="none"
        stroke="#CBD5E1" stroke-width="2" style="stroke-width: 2;"></rect>
    <rect x="123.438" y="123.438" width="67.969" height="32.813" rx="10" fill="#1D4ED8"
        style="stroke-width: 1;"></rect>
    <text x="157.422" y="145.703" text-anchor="middle" font-size="14" font-weight="800"
        font-family="Inter, ui-sans-serif, system-ui, -apple-system, Segoe UI, Roboto, Arial"
        fill="#FFFFFF" style="white-space: pre; stroke-width: 1; font-size: 16.4px;">PPO</text>
    <use href="#toothIcon" width="74" height="74"
        transform="matrix(2.040992, 0, 0, 2.040992, 222.301224, 149.63739)" style=""></use>
    <text x="128.125" y="332.448" font-size="28" font-weight="900"
        font-family="Inter, ui-sans-serif, system-ui, -apple-system, Segoe UI, Roboto, Arial"
        fill="#0F172A" style="white-space: pre; stroke-width: 1; font-size: 32.8px;">Deluxe 200</text>
    <text x="128.125" y="369.948" font-size="14" font-weight="700"
        font-family="Inter, ui-sans-serif, system-ui, -apple-system, Segoe UI, Roboto, Arial"
        fill="#475569" style="white-space: pre; stroke-width: 1; font-size: 16.4px;">SMB Dental</text>
</svg>
